<?xml version="1.0" encoding="utf-8"?>
<!-- Generator: Adobe Illustrator 20.1.0, SVG Export Plug-In . SVG Version: 6.00 Build 0)  -->
<svg version="1.1" id="Warstwa_1" xmlns="http://www.w3.org/2000/svg" xmlns:xlink="http://www.w3.org/1999/xlink" x="0px" y="0px"
	 viewBox="0 0 100 100" style="enable-background:new 0 0 100 100;" xml:space="preserve">
<style type="text/css">
	.st0{fill:#ED6F1C;}
</style>
<path class="st0" d="M49.6-0.6C21.8-0.6-0.8,22-0.8,49.8c0,27.8,22.6,50.4,50.4,50.4c27.8,0,50.4-22.6,50.4-50.4
	C100,22,77.4-0.6,49.6-0.6z M71.6,50.3c-4.6,4.6-11,5.8-16.5,3.6L33.3,75.7c-0.7,1-2.4,1-3.4-0.2l-5.5-5.5c-1-1-1-2.4,0-3.4
	l21.8-21.8c-2.2-5.5-1-12,3.6-16.5c4.8-4.8,12-6,17.7-3.1L57.3,35.7l7.2,7.2l10.3-10.3C77.4,38.3,76.4,45.5,71.6,50.3z"/>
</svg>
