<?xml version="1.0" encoding="utf-8"?>
<!-- Generator: Adobe Illustrator 20.1.0, SVG Export Plug-In . SVG Version: 6.00 Build 0)  -->
<svg version="1.1" id="Warstwa_1" xmlns="http://www.w3.org/2000/svg" xmlns:xlink="http://www.w3.org/1999/xlink" x="0px" y="0px"
	 viewBox="0 0 100 101.6" style="enable-background:new 0 0 100 101.6;" xml:space="preserve">
<path d="M50,0C22.4,0,0,22.4,0,50c0,27.6,22.4,50,50,50c27.6,0,50-22.4,50-50C100,22.4,77.6,0,50,0z M75.3,72.8
	c0,2.7-2.2,4.8-4.8,4.8H29.5c-2.7,0-4.8-2.2-4.8-4.8V31.9c0-2.7,2.2-4.8,4.8-4.8h2.3v-4.8c0-2.7,2.2-4.8,4.8-4.8
	c2.7,0,4.8,2.2,4.8,4.8v4.8H58v-4.8c0-2.7,2.2-4.8,4.8-4.8c2.7,0,4.8,2.2,4.8,4.8v4.8h2.8c2.7,0,4.8,2.2,4.8,4.8V72.8z"/>
<g id="SPLINE_32_">
	<path d="M42.7,47.3c0-3.3-2.7-6-6-6c-3.3,0-6,2.7-6,6c0,0,0,0,0,0c0,3.3,2.7,6,6,6C40,53.4,42.7,50.7,42.7,47.3z"/>
</g>
<g id="SPLINE_33_">
	<circle cx="36.6" cy="68.6" r="2.5"/>
</g>
<g id="SPLINE_34_">
	<circle cx="45.4" cy="68.6" r="2.5"/>
</g>
<g id="SPLINE_35_">
	<circle cx="54.1" cy="68.6" r="2.5"/>
</g>
<g id="SPLINE_36_">
	<circle cx="62.8" cy="68.6" r="2.5"/>
</g>
<g id="SPLINE_37_">
	<path d="M62.8,44.8c1.4,0,2.5,1.1,2.5,2.5h3.5c0-3.3-2.7-6-6-6c-3.3,0-6,2.7-6,6l3.5,0C60.3,45.9,61.4,44.8,62.8,44.8z"/>
</g>
<g id="LWPOLYLINE_170_">
	<polyline points="52.4,59.6 47.6,59.6 47.6,49.9 52.4,49.9 52.4,59.6 	"/>
</g>
</svg>
