<svg fill="#E94E0F" xmlns="http://www.w3.org/2000/svg" viewBox="0 0 134.9 134.9">
	<path d="M4.5 71.9c-1.2 0-2.4-0.5-3.3-1.3C0.4 69.7 0 68.6 0 67.4 0.2 49.5 7.3 32.7 20 20 32.7 7.3 49.5 0.2 67.4 0c2.5 0 4.4 1.9 4.4 4.4C71.9 7 70 9 67.5 9c-15.5 0.2-30.1 6.3-41.1 17.3C15.3 37.3 9.2 51.9 9 67.5 9 70 7 71.9 4.5 71.9 4.5 71.9 4.5 71.9 4.5 71.9z"/>
	<path d="M67.4 134.9c-2.5 0-4.4-1.9-4.4-4.4 0-2.6 1.9-4.5 4.4-4.6 15.5-0.2 30.1-6.3 41.1-17.3s17.1-25.6 17.3-41.1c0-2.5 2-4.4 4.5-4.4 1.2 0 2.4 0.5 3.3 1.3 0.8 0.8 1.2 1.9 1.2 3.1 -0.2 17.9-7.3 34.8-20 47.4C102.2 127.6 85.4 134.7 67.4 134.9 67.5 134.9 67.4 134.9 67.4 134.9z"/>
</svg>
